<svg width="118" height="126" viewBox="0 0 118 126" fill="none" xmlns="http://www.w3.org/2000/svg">
<g style="mix-blend-mode:luminosity" opacity="0.7" filter="url(#filter0_b_1:6)">
<path d="M116.621 103.344C109.978 123.095 81.2165 118.749 52.3759 93.6274C23.5352 68.5063 5.53473 32.1373 12.178 12.3765C18.8213 -7.37437 47.5823 -3.01844 76.423 22.1027C105.264 47.2239 123.264 83.5929 116.621 103.344Z" fill="url(#paint0_linear_1:6)"/>
<path opacity="0.7" d="M76.423 22.1125C47.5823 -3.00868 18.8213 -7.3646 12.178 12.3862C5.53473 32.1371 23.5352 68.516 52.3759 93.6372C81.2165 118.758 109.978 123.104 116.621 103.354C123.264 83.5927 105.264 47.2237 76.423 22.1125ZM116.143 103.075C113.19 111.857 105.592 116.103 94.7418 115.049C82.4895 113.855 67.1442 105.909 52.6245 93.2692C24.0225 68.3569 6.10159 32.1968 12.6653 12.6548C15.619 3.8733 23.217 -0.373234 34.0671 0.690885C46.3194 1.88429 61.6745 9.83037 76.1942 22.4705C104.786 47.3828 122.707 83.543 116.143 103.075Z" fill="url(#paint1_linear_1:6)"/>
<path d="M59.3273 72.5935L63.2655 80.5297L56.9803 79.5551L53.0321 71.6189L59.3273 72.5935ZM75.4979 44.1408L71.5597 36.2046L65.2645 35.23L69.2127 43.1761L75.4979 44.1408ZM110.504 98.1523C104.667 115.516 79.1776 111.588 53.6785 89.3808C28.1794 67.1735 12.1878 34.9714 18.0256 17.6074C23.8633 0.24337 49.3624 4.19155 74.8515 26.3988C100.361 48.6061 116.342 80.7883 110.504 98.1523ZM73.8968 29.263C50.7149 9.07457 27.5429 5.4844 22.2323 21.2672C16.9216 37.05 31.4713 66.3282 54.6432 86.5166C77.8251 106.705 100.997 110.275 106.298 94.4925C111.608 78.7097 97.0787 49.4415 73.8968 29.263ZM80.9777 57.5467C71.3608 49.173 66.6071 50.1178 62.0721 51.4404C58.9295 52.2559 56.7416 54.1355 52.9028 50.794C50.884 49.0337 50.2077 46.9055 50.6552 45.5828C51.1425 44.1209 54.2056 44.3496 59.0489 47.5022C59.1582 47.3331 59.2975 47.0447 59.4268 46.637C59.8942 45.2347 60.4212 42.5297 60.4511 39.4268C56.9604 36.3836 44.8573 25.8419 43.3357 24.6485C43.3357 24.6485 40.929 30.0089 40.7102 30.1183C40.6903 30.168 43.3655 32.6045 44.8076 33.9769C43.9324 33.7482 42.1721 33.8178 40.6107 35.061C37.6968 32.6344 33.2415 29.0641 33.2117 29.1536C33.1918 29.2232 32.2668 31.4012 31.8491 32.6642C31.69 33.1416 31.6005 33.4896 31.6602 33.5394C31.8591 33.7084 35.3996 36.9107 38.2438 39.2776C37.1698 44.0314 41.2771 52.9919 48.6165 59.3865C56.8908 66.5867 61.6147 66.2585 66.4877 65.2441C70.5851 64.4287 73.2205 62.2805 75.6471 64.3988C78.3323 66.7359 78.372 68.9636 78.0936 69.789C77.6162 71.2112 75.6073 71.4697 71.6293 68.2973C71.5298 68.2078 71.1321 69.1227 70.7243 70.346C70.0182 72.4444 69.2624 75.4776 69.8989 76.0246C72.0569 77.9042 84.7667 89.9874 84.9855 89.878C86.5469 89.152 87.5115 86.8249 87.9292 85.5817C88.0883 85.0944 88.1679 84.7762 88.1679 84.7762L85.0452 81.6435C85.8706 81.7728 86.9447 81.4645 87.8696 80.7286C89.6398 82.2104 94.9007 86.7354 95.2488 86.984C95.3184 87.0337 95.398 86.9044 95.4775 86.6558C95.8256 85.6215 96.2234 82.5585 95.9549 82.28C95.7063 82.0015 91.768 78.6898 89.9381 77.1484C91.4697 71.1217 87.3723 63.106 80.9777 57.5467Z" fill="url(#paint2_linear_1:6)"/>
<path d="M60.0625 72.0566L64.0006 79.9928L57.7154 79.0181L53.7672 71.082L60.0625 72.0566ZM76.233 43.6039L72.2948 35.6677L65.9996 34.6931L69.9478 42.6392L76.233 43.6039ZM111.24 97.6154C105.402 114.979 79.9127 111.051 54.4136 88.8438C28.9145 66.6366 12.9229 34.4345 18.7607 17.0705C24.5984 -0.293562 50.0975 3.65463 75.5866 25.8619C101.096 48.0592 117.077 80.2513 111.24 97.6154ZM74.6319 28.7161C51.45 8.5277 28.2781 4.93754 22.9674 20.7203C17.6568 36.5031 32.2064 65.7813 55.3783 85.9697C78.5602 106.158 101.732 109.728 107.033 93.9456C112.344 78.1629 97.8138 48.9046 74.6319 28.7161ZM81.7128 56.9998C72.0959 48.6261 67.3422 49.5709 62.8072 50.8936C59.6646 51.7091 57.4767 53.5887 53.6379 50.2471C51.6191 48.4869 50.9428 46.3586 51.3903 45.0359C51.8777 43.574 54.9407 43.8027 59.784 46.9553C59.8934 46.7863 60.0326 46.4979 60.1619 46.0901C60.6293 44.6879 61.1563 41.9828 61.1862 38.88C57.6955 35.8368 45.5924 25.295 44.0708 24.1016C44.0708 24.1016 41.6641 29.462 41.4453 29.5714C41.4254 29.6211 44.1006 32.0577 45.5427 33.4301C44.6675 33.2013 42.9073 33.271 41.3459 34.5141C38.432 32.0875 33.9766 28.5172 33.9468 28.6067C33.9269 28.6763 33.002 30.8543 32.5843 32.1173C32.4252 32.5947 32.3357 32.9428 32.3953 32.9925C32.5942 33.1616 36.1347 36.3639 38.979 38.7308C37.9049 43.4845 42.0122 52.445 49.3516 58.8396C57.6259 66.0399 62.3498 65.7117 67.2228 64.6973C71.3202 63.8818 73.9556 61.7337 76.3822 63.852C79.0674 66.189 79.1072 68.4167 78.8287 69.2422C78.3514 70.6643 76.3425 70.9229 72.3645 67.7504C72.265 67.6609 71.8672 68.5758 71.4594 69.7991C70.7533 71.8975 69.9975 74.9307 70.634 75.4777C72.792 77.3573 85.5019 89.4405 85.7206 89.3311C87.282 88.6052 88.2467 86.278 88.6643 85.0349C88.8235 84.5476 88.9031 84.2293 88.9031 84.2293L85.7803 81.0967C86.6058 81.2259 87.6798 80.9176 88.6047 80.1817C90.3749 81.6635 95.6359 86.1885 95.9839 86.4371C96.0536 86.4869 96.1331 86.3576 96.2127 86.109C96.5607 85.0647 96.9585 82.0116 96.69 81.7331C96.4414 81.4547 92.5031 78.143 90.6733 76.6015C92.2048 70.5748 88.1074 62.569 81.7128 56.9998Z" fill="url(#paint3_linear_1:6)"/>
<path opacity="0.7" d="M81.7135 56.9996C72.0967 48.6259 67.343 49.5706 62.808 50.8933C59.6654 51.7088 57.4775 53.5884 53.6387 50.2469C51.6199 48.4866 50.9436 46.3584 51.3911 45.0357C51.8784 43.5738 54.9415 43.8025 59.7847 46.9551C59.8941 46.786 60.0334 46.4976 60.1627 46.0899C60.6301 44.6876 61.1571 41.9826 61.187 38.8797C57.6963 35.8365 45.5932 25.2948 44.0716 24.1014C44.0716 24.1014 41.6649 29.4618 41.4461 29.5712C41.4262 29.6209 44.1014 32.0574 45.5434 33.4298C44.6683 33.2011 42.908 33.2707 41.3467 34.5138C38.4328 32.0872 33.9774 28.517 33.9476 28.6065C33.9277 28.6761 33.0028 30.8541 32.5851 32.1171C32.426 32.5944 32.3365 32.9425 32.3961 32.9922C32.595 33.1613 36.1355 36.3636 38.9797 38.7305C37.9057 43.4843 42.013 52.4447 49.3524 58.8394C57.6267 66.0396 62.3505 65.7114 67.2236 64.697C71.321 63.8815 73.9564 61.7334 76.383 63.8517C79.0682 66.1888 79.108 68.4165 78.8295 69.2419C78.3522 70.6641 76.3433 70.9226 72.3652 67.7502C72.2658 67.6607 71.868 68.5756 71.4602 69.7988C70.7541 71.8972 69.9983 74.9305 70.6348 75.4775C72.7928 77.3571 85.5026 89.4403 85.7214 89.3309C87.2828 88.6049 88.2474 86.2778 88.6651 85.0346C88.8242 84.5473 88.9038 84.2291 88.9038 84.2291L85.7811 81.0964C86.6065 81.2257 87.6806 80.9174 88.6055 80.1815C90.3757 81.6633 95.6366 86.1883 95.9847 86.4369C96.0543 86.4866 96.1339 86.3573 96.2134 86.1087C96.5615 85.0744 96.9593 82.0113 96.6908 81.7329C96.4421 81.4544 92.5039 78.1427 90.674 76.6012C92.2056 70.5745 88.1082 62.5688 81.7135 56.9996ZM96.4919 81.9318C96.6112 82.25 96.3029 84.975 95.9449 86.0192C95.9449 86.0192 95.9449 86.0192 95.9449 86.0291C95.3382 85.5319 93.6973 84.1296 92.2255 82.8666C90.8829 81.7229 89.5502 80.5793 88.8143 79.9627L88.6254 79.8035L88.4364 79.9527C87.6507 80.5693 86.7259 80.8975 85.9501 80.8179L84.9357 80.6688L88.5756 84.3285C88.5359 84.4678 88.4762 84.6866 88.3867 84.9551C88.0585 85.9297 87.1634 88.227 85.7413 89.0027C84.9357 88.3861 80.5301 84.2788 76.9698 80.9373C74.2548 78.4013 71.6989 76.0145 70.8337 75.2587C70.4955 74.9603 70.7442 72.8818 71.7487 69.8983C72.0371 69.043 72.2757 68.4563 72.4249 68.1679C74.2946 69.6198 75.846 70.4154 77.0394 70.5248C78.0736 70.6243 78.8295 70.1867 79.1179 69.3314C79.456 68.327 79.3069 65.9899 76.5819 63.623C75.9355 63.0561 75.2294 62.7478 74.4338 62.6682C73.2304 62.5489 71.9575 62.9765 70.4757 63.4639C69.501 63.792 68.3872 64.16 67.1739 64.4086C65.1551 64.8363 63.4246 65.0749 61.5052 64.886C57.8554 64.528 54.0564 62.539 49.5612 58.6206C41.9533 51.9873 38.3035 43.176 39.288 38.8001L39.3278 38.6211L39.1885 38.5018C37.5576 37.1493 35.4393 35.2995 32.8735 33.0121L32.7044 32.863C32.7243 32.7735 32.7641 32.5845 32.8934 32.2165C33.2216 31.232 33.858 29.7004 34.1266 29.0341C34.9719 29.6806 38.5222 32.5348 41.1875 34.7525L41.3765 34.9116L41.5654 34.7625C43.0572 33.5591 44.6086 33.6088 45.0561 33.6586C45.2252 33.6785 45.3744 33.6983 45.5037 33.7381L45.7821 33.2309C45.1755 32.6541 44.36 31.8884 43.6041 31.1922C42.8881 30.5259 42.1522 29.8397 41.8538 29.5513C42.1323 29.0938 42.739 27.8805 44.2108 24.5887C45.7822 25.8815 51.3911 30.7347 60.9085 39.0289C60.8688 42.092 60.3417 44.6976 59.9041 46.0103C59.8245 46.249 59.7549 46.418 59.6952 46.5473C57.2288 44.976 55.0907 44.0611 53.4895 43.9119C51.7989 43.7428 51.2817 44.4987 51.1226 44.9561C50.6651 46.3087 51.2121 48.5363 53.4597 50.4955C54.852 51.7088 56.1051 52.3254 57.4178 52.4547C58.7505 52.584 59.9339 52.1762 61.187 51.7386C61.7339 51.5497 62.3008 51.3508 62.8975 51.2016C64.7871 50.6546 66.6567 50.1773 68.9043 50.3961C72.574 50.7541 76.5819 52.932 81.5345 57.2382C88.1679 63.0163 91.8177 70.9525 90.4155 76.5416L90.3657 76.7206L90.505 76.8399C94.0255 79.7936 96.3228 81.7528 96.4919 81.9318ZM53.768 71.0818L57.7162 79.0179L64.0014 79.9925L60.0632 72.0564L53.768 71.0818ZM57.9151 78.7494L54.2951 71.4597L59.8643 72.3249L63.4744 79.6046L57.9151 78.7494ZM75.5974 25.8517C50.0983 3.64443 24.6091 -0.303749 18.7714 17.0603C12.9337 34.4243 28.9253 66.6264 54.4244 88.8336C79.9234 111.041 105.413 114.969 111.25 97.6052C117.078 80.2511 101.096 48.059 75.5974 25.8517ZM110.962 97.5157C108.376 105.213 101.683 108.943 92.1161 108.008C81.2163 106.944 67.5419 99.8726 54.6233 88.6148C29.2037 66.4772 13.2519 34.4243 19.0598 17.1597C21.6455 9.46229 28.3385 5.74283 37.8957 6.67767C48.8054 7.74178 62.4699 14.8127 75.4084 26.0805C100.808 48.2181 116.76 80.261 110.962 97.5157ZM74.8316 28.4971C62.9871 18.1841 50.4464 11.6999 40.4118 10.7253C31.4315 9.85014 25.1362 13.3707 22.6898 20.6405C17.3493 36.5327 31.9287 65.9501 55.1901 86.2082C67.0247 96.5212 79.5654 102.995 89.6 103.97C98.5903 104.845 104.885 101.325 107.332 94.0548C112.663 78.1626 98.093 48.7551 74.8316 28.4971ZM107.044 93.9553C101.733 109.738 78.561 106.168 55.3891 85.9794C32.2072 65.791 17.6675 36.5128 22.9781 20.73C28.2888 4.94723 51.4608 8.53739 74.6426 28.7258C97.8146 48.9043 112.344 78.1626 107.044 93.9553ZM76.2338 43.6036L72.2956 35.6675L66.0004 34.6928L69.9485 42.6389L76.2338 43.6036ZM72.0967 35.9459L75.7167 43.2257L70.1574 42.3704L66.5374 35.0807L72.0967 35.9459Z" fill="url(#paint4_linear_1:6)"/>
<path d="M94.5822 124.228C94.7214 124.188 94.8507 124.139 94.98 124.089C95.2784 123.99 95.5668 123.88 95.8552 123.771C96.0143 123.711 96.1634 123.641 96.3226 123.572C96.5811 123.462 96.8397 123.343 97.0884 123.224C97.2475 123.144 97.3966 123.065 97.5458 122.985C97.7944 122.856 98.0331 122.727 98.2619 122.577C98.4011 122.488 98.5503 122.408 98.6895 122.319C98.9381 122.16 99.1768 121.991 99.4155 121.822C99.5348 121.742 99.6542 121.662 99.7636 121.573C100.112 121.314 100.45 121.046 100.768 120.757C100.768 120.757 100.768 120.757 100.778 120.757L111.578 111.2C111.25 111.489 110.912 111.757 110.564 112.016C110.454 112.095 110.335 112.175 110.216 112.254C109.977 112.423 109.728 112.593 109.48 112.752C109.341 112.841 109.191 112.921 109.052 113.01C108.814 113.149 108.575 113.289 108.336 113.418C108.187 113.498 108.028 113.577 107.879 113.657C107.63 113.776 107.372 113.895 107.113 114.005C106.964 114.074 106.805 114.134 106.646 114.204C106.357 114.323 106.059 114.422 105.76 114.522C105.631 114.572 105.502 114.621 105.363 114.661C104.925 114.8 104.487 114.93 104.03 115.039C103.98 115.049 103.931 115.059 103.891 115.069C103.493 115.168 103.085 115.248 102.668 115.327C102.17 115.417 101.673 115.487 101.166 115.546C101.116 115.556 101.066 115.566 101.007 115.566C100.44 115.626 99.863 115.666 99.2763 115.695C99.0973 115.705 98.9083 115.705 98.7194 115.705C98.3116 115.715 97.9039 115.725 97.4762 115.715C97.2475 115.715 97.0088 115.695 96.7701 115.685C96.3822 115.666 96.0044 115.656 95.6066 115.626C95.3281 115.606 95.0496 115.576 94.7612 115.556C94.4728 115.526 94.1844 115.496 93.896 115.467C93.5976 115.427 93.2893 115.387 92.981 115.337C92.6827 115.298 92.3943 115.248 92.0959 115.198C91.7876 115.148 91.4694 115.089 91.1611 115.029C90.8627 114.969 90.5545 114.91 90.2462 114.85C89.9279 114.78 89.6097 114.711 89.2914 114.631C88.9831 114.562 88.6748 114.482 88.3665 114.403C88.0284 114.313 87.6903 114.224 87.3521 114.134C87.0637 114.054 86.7754 113.975 86.477 113.885C86.1289 113.786 85.7808 113.677 85.4327 113.557C85.1344 113.468 84.846 113.368 84.5477 113.269C84.1897 113.149 83.8316 113.02 83.4736 112.891C83.1752 112.782 82.8868 112.682 82.5885 112.573C82.2205 112.433 81.8525 112.284 81.4846 112.145C81.1862 112.026 80.8978 111.916 80.5995 111.797C80.2613 111.658 79.9232 111.509 79.585 111.369C79.227 111.22 78.869 111.061 78.511 110.902C78.1729 110.753 77.8347 110.594 77.4966 110.434C77.1286 110.265 76.7706 110.096 76.4027 109.917C76.0646 109.748 75.7164 109.579 75.3684 109.4C75.0004 109.211 74.6324 109.032 74.2645 108.843C73.9164 108.664 73.5683 108.475 73.2203 108.286C72.8523 108.087 72.4843 107.889 72.1064 107.69C71.8478 107.54 71.5793 107.391 71.3207 107.242C70.734 106.914 70.1472 106.566 69.5605 106.218C69.2721 106.049 68.9837 105.87 68.6953 105.691C68.1085 105.333 67.5217 104.965 66.935 104.587C66.6665 104.418 66.4079 104.249 66.1394 104.08C65.314 103.543 64.4786 102.986 63.6432 102.409C63.6233 102.399 63.6134 102.389 63.5935 102.379C62.7481 101.792 61.8929 101.186 61.0376 100.559C60.6398 100.271 60.242 99.9623 59.8342 99.664C59.5259 99.4352 59.2176 99.2065 58.9093 98.9678C58.4717 98.6297 58.0342 98.2916 57.5966 97.9435C57.3082 97.7148 57.0198 97.496 56.7314 97.2573C56.254 96.8694 55.7667 96.4716 55.2893 96.0738C55.0407 95.8749 54.7921 95.676 54.5534 95.4672C53.8274 94.8605 53.1014 94.234 52.3655 93.6075C51.4008 92.7721 50.4461 91.9168 49.5113 91.0516C49.203 90.7632 48.8947 90.4748 48.5864 90.1864C47.9598 89.5996 47.3333 89.0128 46.7267 88.4161C46.3686 88.0681 46.0205 87.72 45.6625 87.3719C45.1056 86.8249 44.5587 86.278 44.0117 85.7211C43.6437 85.3531 43.2857 84.9752 42.9276 84.5973C42.4105 84.0503 41.8834 83.5033 41.3762 82.9563C41.0182 82.5685 40.6701 82.1906 40.3121 81.8027C39.8049 81.2458 39.2977 80.6789 38.8005 80.112C38.4624 79.7341 38.1342 79.3562 37.806 78.9783C37.2888 78.3816 36.7916 77.7849 36.2844 77.1882C35.986 76.8302 35.6777 76.4722 35.3893 76.1141C34.8224 75.4279 34.2755 74.7318 33.7285 74.0456C33.5097 73.7671 33.2909 73.4986 33.0721 73.2201C32.3163 72.2555 31.5803 71.2809 30.8543 70.3062C30.6753 70.0676 30.5063 69.8189 30.3273 69.5802C29.8101 68.8642 29.2831 68.1482 28.7858 67.4321C28.5372 67.0741 28.2886 66.7061 28.0399 66.3481C27.6223 65.7415 27.2145 65.1448 26.8068 64.5381C26.5383 64.1403 26.2896 63.7425 26.031 63.3447C25.6631 62.7778 25.2951 62.201 24.9371 61.6342C24.6785 61.2165 24.4199 60.7988 24.1713 60.3811C23.8332 59.8242 23.495 59.2672 23.1668 58.7203C22.8685 58.2131 22.5702 57.6959 22.2718 57.1887C22.0829 56.8605 21.8939 56.5323 21.7149 56.2141C21.3767 55.6075 21.0485 55.0108 20.7303 54.4041C20.5911 54.1356 20.4419 53.877 20.3027 53.6085C19.8452 52.7433 19.4076 51.8781 18.98 51.0228C18.9302 50.9233 18.8905 50.8239 18.8408 50.7245C18.4629 49.9587 18.1048 49.1929 17.7468 48.4371C17.6374 48.1984 17.528 47.9498 17.4186 47.7111C17.1501 47.1144 16.8816 46.5177 16.623 45.921C16.5037 45.6326 16.3744 45.3442 16.255 45.0657C16.0164 44.4889 15.7877 43.922 15.5589 43.3552C15.4495 43.0867 15.3501 42.8181 15.2407 42.5596C14.9622 41.8336 14.6937 41.1175 14.445 40.4015C14.4152 40.312 14.3754 40.2125 14.3456 40.1131C14.0572 39.2976 13.7986 38.492 13.55 37.6964C13.4705 37.4578 13.4108 37.2191 13.3411 36.9904C13.1721 36.4235 13.003 35.8566 12.8538 35.2997C12.7743 35.0212 12.7047 34.7328 12.6251 34.4544C12.4859 33.9273 12.3566 33.4101 12.2373 32.893C12.1776 32.6245 12.108 32.346 12.0483 32.0775C11.9389 31.6001 11.8494 31.1228 11.7599 30.6554C11.6903 30.3172 11.6207 29.9791 11.561 29.641C11.4715 29.1636 11.4019 28.6862 11.3323 28.2188C11.2826 27.9105 11.2328 27.5923 11.193 27.284C11.1234 26.7668 11.0737 26.2597 11.0239 25.7525C10.9941 25.5038 10.9643 25.2452 10.9444 24.9966C10.8847 24.2408 10.835 23.4949 10.8151 22.7689V22.759C10.7952 22.0827 10.7952 21.4264 10.8151 20.77C10.8151 20.6307 10.8251 20.4915 10.8251 20.3523C10.845 19.7158 10.8847 19.0893 10.9444 18.4727C10.9544 18.3732 10.9643 18.2638 10.9742 18.1644C11.0339 17.5975 11.1035 17.0505 11.193 16.5036C11.2129 16.4041 11.2229 16.3047 11.2428 16.2052C11.3422 15.6185 11.4615 15.0416 11.6008 14.4748C11.6306 14.3554 11.6605 14.2261 11.6903 14.1068C11.8395 13.53 11.9986 12.9631 12.1776 12.4062C13.2815 9.12435 14.992 6.51874 17.2098 4.54962L6.40948 14.1068C4.19174 16.0759 2.48116 18.6815 1.37726 21.9634C1.18831 22.5104 1.02919 23.0872 0.889964 23.664C0.860129 23.7833 0.830297 23.9126 0.800462 24.032C0.661232 24.5988 0.541875 25.1756 0.442425 25.7723C0.422535 25.8718 0.412602 25.9712 0.392712 26.0707C0.303207 26.6177 0.23359 27.1746 0.17392 27.7315C0.163975 27.831 0.154031 27.9404 0.144086 28.0398C0.0844156 28.6564 0.0545854 29.2829 0.0247502 29.9194C0.0247502 30.0587 0.0147955 30.1979 0.0147955 30.3371C-0.00509459 30.9935 -0.00509459 31.6499 0.0147955 32.3261V32.3361C0.0346856 33.072 0.0844156 33.8079 0.144086 34.5638C0.163976 34.8124 0.193798 35.061 0.223633 35.3096C0.273358 35.8268 0.323097 36.334 0.392712 36.8611C0.432492 37.1694 0.482232 37.4776 0.531957 37.7859C0.601572 38.2633 0.671168 38.7407 0.760674 39.218C0.820344 39.5562 0.889971 39.8943 0.959587 40.2225C1.0292 40.5606 1.07891 40.8987 1.15847 41.2369C1.1883 41.3761 1.22809 41.5153 1.25793 41.6546C1.3176 41.9231 1.37727 42.1916 1.44688 42.4601C1.56622 42.9773 1.69552 43.5043 1.83475 44.0314C1.90437 44.3099 1.98391 44.5884 2.06347 44.8668C2.22259 45.4237 2.38173 45.9906 2.5508 46.5575C2.62041 46.7962 2.69003 47.0348 2.76959 47.2735C3.01822 48.0592 3.2768 48.8448 3.55526 49.6404C3.5652 49.6603 3.56516 49.6703 3.57511 49.6902C3.60494 49.7797 3.64476 49.8791 3.67459 49.9786C3.92322 50.6946 4.19172 51.4107 4.47018 52.1366C4.56963 52.4052 4.67904 52.6737 4.78843 52.9323C5.01717 53.4991 5.24592 54.066 5.4846 54.6428C5.60394 54.9312 5.72327 55.2196 5.85256 55.508C6.11113 56.1047 6.37963 56.7014 6.64815 57.3081C6.75755 57.5467 6.85701 57.7854 6.97635 58.0241C7.01613 58.1136 7.0559 58.1932 7.08574 58.2727C7.39403 58.949 7.7222 59.6153 8.06033 60.2916C8.11006 60.391 8.15981 60.5004 8.20953 60.5999C8.63717 61.4551 9.07471 62.3204 9.53218 63.1856C9.67141 63.4442 9.82064 63.7127 9.95987 63.9712C10.2881 64.5779 10.6162 65.1746 10.9544 65.7812C11.1334 66.1094 11.3223 66.4376 11.5113 66.7559C11.7102 67.094 11.8892 67.4321 12.0881 67.7703C12.1875 67.9393 12.2969 68.1084 12.3964 68.2874C12.7245 68.8443 13.0627 69.4012 13.4008 69.9582C13.6594 70.3758 13.908 70.7935 14.1666 71.2013C14.5246 71.7781 14.8926 72.345 15.2705 72.9118C15.5291 73.3096 15.7777 73.7074 16.0462 74.1052C16.454 74.7119 16.8717 75.3185 17.2794 75.9252C17.528 76.2832 17.7667 76.6412 18.0153 76.9992C18.5225 77.7153 19.0397 78.4413 19.5667 79.1573C19.7259 79.3761 19.885 79.6048 20.0441 79.8236C20.054 79.8435 20.074 79.8634 20.0839 79.8833C20.8099 80.8579 21.5458 81.8325 22.3016 82.8071C22.5105 83.0757 22.7293 83.3442 22.9481 83.6127C23.4951 84.3088 24.052 85.005 24.6188 85.7012C24.9172 86.0592 25.2155 86.4172 25.5139 86.7752C26.0111 87.3719 26.5183 87.9686 27.0355 88.5653C27.3637 88.9432 27.7018 89.3311 28.0399 89.709C28.5372 90.2759 29.0444 90.8427 29.5515 91.3997C29.8996 91.7875 30.2576 92.1654 30.6057 92.5433C31.1229 93.1003 31.64 93.6472 32.1671 94.1942C32.5251 94.5721 32.8832 94.9401 33.2511 95.3081C33.7981 95.865 34.3451 96.412 34.902 96.9689C35.2501 97.317 35.5981 97.665 35.9562 98.0131C36.5728 98.6098 37.1993 99.1966 37.8258 99.7833C38.1341 100.072 38.4325 100.36 38.7408 100.649C39.6757 101.514 40.6304 102.369 41.595 103.204C42.321 103.841 43.0569 104.458 43.7829 105.064C44.0315 105.273 44.2703 105.462 44.5189 105.661C45.0062 106.059 45.4835 106.456 45.9708 106.844C46.2692 107.083 46.5576 107.312 46.8559 107.54C47.2836 107.879 47.7211 108.217 48.1488 108.545C48.4571 108.784 48.7753 109.012 49.0836 109.251C49.4019 109.49 49.7201 109.728 50.0284 109.967C50.108 110.027 50.1875 110.076 50.2671 110.136C51.1224 110.763 51.9776 111.369 52.823 111.956C52.8329 111.966 52.8428 111.976 52.8627 111.976C53.6981 112.553 54.5335 113.11 55.3689 113.647C55.6374 113.816 55.896 113.985 56.1645 114.154C56.7512 114.532 57.338 114.9 57.9248 115.258C58.2132 115.437 58.5016 115.606 58.79 115.785C59.3768 116.133 59.9735 116.481 60.5602 116.809C60.7393 116.909 60.9182 117.018 61.0972 117.118C61.1768 117.167 61.2663 117.207 61.3459 117.247C61.7138 117.456 62.0917 117.655 62.4597 117.844C62.8078 118.032 63.1559 118.221 63.5039 118.4C63.8719 118.589 64.2399 118.768 64.5979 118.957C64.946 119.126 65.2941 119.305 65.6322 119.475C65.9902 119.654 66.3581 119.813 66.7162 119.982C67.0642 120.141 67.4024 120.3 67.7505 120.459C68.1085 120.618 68.4566 120.767 68.8146 120.917C69.0931 121.036 69.3615 121.155 69.64 121.275C69.7096 121.304 69.7693 121.324 69.8389 121.354C70.1373 121.473 70.4257 121.583 70.724 121.702C71.092 121.851 71.4699 121.991 71.8379 122.13C72.1362 122.239 72.4346 122.349 72.733 122.448C73.091 122.577 73.449 122.707 73.807 122.826C74.1053 122.925 74.3938 123.015 74.6921 123.114C75.0402 123.224 75.3882 123.333 75.7363 123.433C76.0347 123.522 76.3231 123.602 76.6115 123.681C76.8303 123.741 77.0491 123.811 77.2579 123.86C77.3773 123.89 77.4966 123.92 77.616 123.95C77.9242 124.029 78.2425 124.099 78.5508 124.179C78.869 124.258 79.1873 124.328 79.5055 124.397C79.8138 124.467 80.1122 124.517 80.4205 124.576C80.7387 124.636 81.047 124.696 81.3553 124.745C81.6536 124.795 81.952 124.845 82.2404 124.885C82.5487 124.924 82.847 124.974 83.1553 125.014C83.4437 125.054 83.7321 125.084 84.0206 125.103C84.1896 125.123 84.3687 125.143 84.5377 125.163C84.6471 125.173 84.7466 125.173 84.856 125.183C85.2438 125.213 85.6317 125.233 86.0195 125.243C86.2582 125.253 86.4869 125.263 86.7157 125.272C87.1334 125.282 87.5511 125.272 87.9588 125.263C88.1378 125.263 88.3268 125.263 88.5058 125.253C89.0925 125.223 89.6693 125.183 90.2362 125.123C90.2859 125.113 90.3357 125.103 90.3954 125.103C90.9026 125.044 91.4097 124.974 91.897 124.885C91.9368 124.875 91.9766 124.875 92.0163 124.865C92.3943 124.795 92.7623 124.716 93.1302 124.626C93.18 124.616 93.2197 124.606 93.2694 124.596C93.707 124.487 94.1446 124.367 94.5822 124.228Z" fill="url(#paint5_linear_1:6)"/>
<path opacity="0.7" d="M62.3207 101.474C59.0289 99.1368 55.7072 96.5312 52.3856 93.6272C49.3921 91.0216 46.5279 88.2867 43.7831 85.4723L18.3537 3.62458C21.6455 1.19799 25.892 0.0145264 30.8048 0.0145264L62.3207 101.474ZM57.4277 8.46781C56.294 7.83133 55.1802 7.23463 54.0663 6.65782L87.4618 114.144C88.4861 114.422 89.5005 114.681 90.495 114.89L57.4277 8.46781ZM73.0713 108.207C76.1045 109.838 79.0682 111.21 81.9323 112.314L48.2683 3.9826C45.3445 2.77925 42.5201 1.85436 39.8151 1.19799L73.0713 108.207ZM82.1014 27.3336C80.2616 25.5434 78.372 23.8031 76.4227 22.1025C74.8315 20.7201 73.2404 19.4074 71.6591 18.1443L101.892 115.437C104.438 115.069 106.755 114.313 108.774 113.169L82.1014 27.3336Z" fill="url(#paint6_linear_1:6)"/>
</g>
<defs>
<filter id="filter0_b_1:6" x="-66.6668" y="-66.6668" width="251.333" height="258.61" filterUnits="userSpaceOnUse" color-interpolation-filters="sRGB">
<feFlood flood-opacity="0" result="BackgroundImageFix"/>
<feGaussianBlur in="BackgroundImage" stdDeviation="33.3333"/>
<feComposite in2="SourceAlpha" operator="in" result="effect1_backgroundBlur_1:6"/>
<feBlend mode="normal" in="SourceGraphic" in2="effect1_backgroundBlur_1:6" result="shape"/>
</filter>
<linearGradient id="paint0_linear_1:6" x1="12.8687" y1="11.0745" x2="113.49" y2="102.444" gradientUnits="userSpaceOnUse">
<stop offset="0.0317" stop-color="#FCE878"/>
<stop offset="0.0527" stop-color="#FCE676"/>
<stop offset="0.6976" stop-color="#FEB432"/>
<stop offset="1" stop-color="#FFA018"/>
</linearGradient>
<linearGradient id="paint1_linear_1:6" x1="95.3636" y1="83.9154" x2="13.1781" y2="14.777" gradientUnits="userSpaceOnUse">
<stop stop-color="#FFE6B9" stop-opacity="0"/>
<stop offset="0.3821" stop-color="#FFF3DE" stop-opacity="0.4239"/>
<stop offset="0.7037" stop-color="#FFFCF6" stop-opacity="0.7807"/>
<stop offset="0.9014" stop-color="white"/>
</linearGradient>
<linearGradient id="paint2_linear_1:6" x1="15.5865" y1="14.1455" x2="113.802" y2="102.387" gradientUnits="userSpaceOnUse">
<stop offset="0.0431" stop-color="#FFA018"/>
<stop offset="0.9874" stop-color="#D36B18"/>
</linearGradient>
<linearGradient id="paint3_linear_1:6" x1="133.65" y1="108.798" x2="4.12076" y2="11.7105" gradientUnits="userSpaceOnUse">
<stop stop-color="#FFB817"/>
<stop offset="0.9893" stop-color="#FFFFBC"/>
</linearGradient>
<linearGradient id="paint4_linear_1:6" x1="133.651" y1="108.798" x2="4.12145" y2="11.7103" gradientUnits="userSpaceOnUse">
<stop stop-color="#FFE6B9" stop-opacity="0"/>
<stop offset="0.3821" stop-color="#FFF3DE" stop-opacity="0.4239"/>
<stop offset="0.7037" stop-color="#FFFCF6" stop-opacity="0.7807"/>
<stop offset="0.9014" stop-color="white"/>
</linearGradient>
<linearGradient id="paint5_linear_1:6" x1="-4.15913" y1="21.1291" x2="99.6149" y2="122.866" gradientUnits="userSpaceOnUse">
<stop offset="0.0394" stop-color="#FFC826"/>
<stop offset="0.1112" stop-color="#FFA018"/>
<stop offset="0.4264" stop-color="#F8771E"/>
<stop offset="0.5129" stop-color="#EC6D1A"/>
<stop offset="0.6677" stop-color="#CD510E"/>
<stop offset="0.721" stop-color="#C14609"/>
<stop offset="0.8348" stop-color="#C3480A"/>
<stop offset="0.8863" stop-color="#CA4E0D"/>
<stop offset="0.9252" stop-color="#D75A11"/>
<stop offset="0.9577" stop-color="#E96A18"/>
<stop offset="0.977" stop-color="#F8771E"/>
<stop offset="0.9864" stop-color="#F87A1E"/>
<stop offset="0.992" stop-color="#FA821C"/>
<stop offset="0.9967" stop-color="#FC901A"/>
<stop offset="1" stop-color="#FFA018"/>
</linearGradient>
<linearGradient id="paint6_linear_1:6" x1="83.3123" y1="97.2535" x2="29.7362" y2="-10.1609" gradientUnits="userSpaceOnUse">
<stop stop-color="#FFE6B9" stop-opacity="0"/>
<stop offset="1" stop-color="white"/>
</linearGradient>
</defs>
</svg>
